<svg xmlns="http://www.w3.org/2000/svg" viewBox="0 0 96 96">
  <defs>
    <linearGradient id="pin" x1="0" y1="0" x2="1" y2="1"><stop stop-color="#8abe83"/><stop offset=".45" stop-color="#43824a"/><stop offset="1" stop-color="#22582f"/></linearGradient>
    <linearGradient id="silver" x2="0" y2="1"><stop stop-color="#f4f7f8"/><stop offset=".5" stop-color="#c5d0d6"/><stop offset="1" stop-color="#7b909c"/></linearGradient>
  </defs>
  <path d="M54 76c20 0 29 4 23 9-5 4-36 1-45 7h46" fill="none" stroke="#c6b52e" stroke-width="4" stroke-linecap="round"/>
  <path d="M48 3C27 3 12 18 12 38c0 19 20 39 36 49 16-10 36-30 36-49C84 18 69 3 48 3Z" fill="url(#pin)" stroke="#a7cba1" stroke-width="1.4"/>
  <circle cx="48" cy="37" r="26" fill="#142b1b" stroke="#234f2d" stroke-width="2"/>
  <path d="M25 27h31v15H25z" fill="url(#silver)" stroke="#657a85"/>
  <path d="M27 30h27m-27 3h27m-27 3h27m-27 3h27" stroke="#7c929e" stroke-width=".8"/>
  <path d="m26 43 5 7 5-7m8 0 5 7 5-7" fill="url(#silver)" stroke="#8699a2" stroke-linejoin="round"/>
  <path d="M59 33h6l6 8v10H58V34Z" fill="url(#silver)" stroke="#71858e" stroke-linejoin="round"/>
  <path d="M61 35h3l4 6h-7z" fill="#284735"/>
  <path d="M25 51h47" stroke="#c4d0d5" stroke-width="2"/>
  <g fill="#23312d" stroke="#d5dfe2" stroke-width="1.5"><circle cx="30" cy="52" r="4"/><circle cx="41" cy="52" r="4"/><circle cx="65" cy="52" r="4"/></g>
  <path d="M24 26h33" stroke="#f1f5f6" stroke-width="1.6"/>
</svg>
